Coordinates
version=1
nRows=16
nColumns=36
inDegrees=yes

Units are S.I. units (second, meters, Newtons, ...)
If the header above contains a line with 'inDegrees', this indicates whether rotational values are in degrees (yes) or radians (no).

endheader
time	pelvis_tilt	pelvis_list	pelvis_rotation	pelvis_tx	pelvis_ty	pelvis_tz	hip_flexion_r	hip_adduction_r	hip_rotation_r	knee_angle_r	knee_angle_r_beta	ankle_angle_r	subtalar_angle_r	mtp_angle_r	hip_flexion_l	hip_adduction_l	hip_rotation_l	knee_angle_l	knee_angle_l_beta	ankle_angle_l	subtalar_angle_l	mtp_angle_l	lumbar_extension	lumbar_bending	lumbar_rotation	arm_flex_r	arm_add_r	arm_rot_r	elbow_flex_r	pro_sup_r	arm_flex_l	arm_add_l	arm_rot_l	elbow_flex_l	pro_sup_l
      4.86666670	    -12.13533088	      0.56492651	      0.27385834	      0.05344647	      1.10269892	      0.07115333	     23.62841324	     -1.35352854	      1.13892892	     11.66381370	      0.20357195	     11.58352100	     -5.50009612	     -7.49999987	     24.42660717	     -0.43191985	     -6.27564524	     12.62762426	      0.22039362	      6.21871592	     -8.28067721	     -7.49999987	     -6.62087758	      0.29942135	      1.01665741	     40.44309064	      2.43212925	     23.79821704	     31.59952640	    105.14264145	     39.26686682	      1.18352954	     13.98607584	     33.19196113	     71.98387586
      4.88333330	    -12.62313000	      0.55034000	      0.26595545	      0.05656441	      1.10351361	      0.07153010	     24.65119271	     -1.32547345	      0.62831202	     11.51109910	      0.20090658	     11.07310310	     -5.95728969	     -7.49999987	     25.53235877	     -0.64383230	     -6.64689824	     12.89892280	      0.22512867	      5.81143438	     -8.51329530	     -7.49999987	     -6.40958303	      0.11559698	      1.54460721	     43.13506677	      2.86311228	     23.22163773	     33.97181760	    105.14002413	     41.04005876	      1.75312643	     14.34379806	     37.39934165	     72.45230154
      4.90000000	    -13.12001128	      0.55175510	      0.26399939	      0.05041917	      1.10590287	      0.06968774	     25.68111746	     -1.42420143	     -0.10685066	     11.48254926	      0.20040829	     10.52848753	     -6.14065278	     -7.49999987	     26.69419755	     -0.69200767	     -6.85448471	     13.32448722	      0.23255617	      5.36143170	     -8.75188648	     -7.49999987	     -6.15732147	      0.04014304	      1.93177831	     45.73879293	      3.31343455	     22.62985023	     35.97157047	    104.86924476	     42.80212818	      2.66717416	     14.45302496	     40.73729036	     73.01297527
      4.91666670	    -13.45046136	      0.48380952	      0.38890837	      0.04845113	      1.10356529	      0.06917176	     26.32084035	     -1.38283985	     -0.30794991	     11.51793979	      0.20102597	     10.35228686	     -5.63716707	     -7.49999987	     27.76165313	     -0.79549107	     -6.59151338	     14.04915541	      0.24520402	      5.32274355	     -8.88293977	     -7.49999987	     -5.87307741	      0.02174886	      2.28047630	     47.99371983	      4.03259115	     21.57291436	     37.78806278	    103.79878670	     44.45297452	      3.98156942	     13.97638234	     43.58893635	     72.33027876
      4.93333330	    -13.89903312	      0.41582855	      0.45558727	      0.04953243	      1.10400690	      0.06780739	     26.95785862	     -1.41640606	     -0.70913702	     11.57910785	      0.20209356	      9.99886024	     -5.11208870	     -7.49999987	     28.78913203	     -0.81155612	     -6.22916770	     14.66883361	      0.25601944	      5.06531790	     -8.58804478	     -7.49999987	     -4.99761019	      0.07678027	      1.91133525	     48.90055873	      4.42453978	     20.33612506	     40.51535275	    103.15413813	     45.49896440	      4.88200108	     13.02862084	     46.70327238	     72.83225314
      4.95000000	    -14.32464701	      0.42705974	      0.36050369	      0.04691676	      1.10097690	      0.06747878	     27.58543621	     -1.42390889	     -0.68899025	     11.91278550	      0.20791733	      9.82756019	     -4.75241722	     -7.49999987	     29.70636464	     -0.88203296	     -6.05174581	     15.22641176	      0.26575102	      5.19670844	     -8.39514968	     -7.49999987	     -3.97817400	     -0.03076280	      1.31320604	     49.27137200	      4.79389524	     19.98445647	     43.22073301	    100.16776369	     46.38218957	      5.34589467	     12.68731429	     49.14433179	     71.60485491
      4.96666670	    -14.24007468	      0.62296853	      0.24438364	      0.04716056	      1.10577677	      0.06706904	     27.67184879	     -1.78076042	     -1.13571305	     11.70103157	      0.20422153	      9.55356962	     -4.59183233	     -7.49999987	     29.86716220	     -0.65059128	     -5.90549570	     15.51656534	      0.27081515	      4.54164636	     -9.17020439	     -7.49999987	     -3.73826761	     -0.23573300	      0.46486797	     49.09314120	      5.64699907	     18.26325568	     45.61997797	     99.43177247	     47.17631540	      5.00649326	     12.10386396	     50.86079768	     72.35411895
      4.98333330	    -14.14234504	      0.83055239	      0.21895621	      0.04786308	      1.10789310	      0.06712416	     27.48452260	     -2.10136998	     -1.41829514	     11.07240545	      0.19324993	      9.31801702	     -4.08704340	     -7.49999987	     29.85889604	     -0.41893481	     -5.75459889	     15.58946825	      0.27208755	      4.28721188	     -9.46761974	     -7.49999987	     -3.43482666	     -0.52187790	     -0.03045153	     48.75943827	      5.96377515	     17.47323870	     47.38020025	     97.72572281	     47.73965473	      4.39020928	     12.46166157	     52.31961705	     71.54460405
      5.00000000	    -14.10050614	      0.94557837	      0.23480883	      0.04887443	      1.11120673	      0.06562694	     27.35064826	     -2.38504502	     -1.89107746	     10.72308649	      0.18715317	      8.91753385	     -3.78958785	     -7.49999987	     29.81891879	     -0.26160188	     -5.74776790	     15.75762764	      0.27502248	      3.57929106	    -10.40305143	     -7.49999987	     -3.34139848	     -0.63468082	     -0.11447836	     47.94990188	      5.82118548	     16.28266617	     49.19995562	     95.49319008	     47.41776603	      3.96094675	     13.94394316	     54.53215032	     71.74395683
      5.01666670	    -13.88379852	      0.89198966	      0.32745922	      0.05120178	      1.11132653	      0.06617562	     26.74495358	     -2.34905628	     -1.93832652	     10.46393956	      0.18263020	      8.63561581	     -3.14401697	     -7.49999987	     29.42104203	     -0.26310916	     -5.67016691	     15.55585824	      0.27150094	      3.17141844	    -10.64355794	     -7.49999987	     -3.44558094	     -0.54862609	     -0.12537435	     46.08992577	      5.85088560	     14.50427993	     51.94278316	     93.38325395	     46.22859146	      3.57033601	     15.13341138	     57.57269631	     71.51323200
      5.03333330	    -13.82966810	      0.84084608	      0.36072361	      0.05365271	      1.11257120	      0.06570118	     26.46351695	     -2.33416245	     -2.10210218	     10.57642125	      0.18459337	      8.50110281	     -3.00956637	     -7.49999987	     29.17926040	     -0.24864674	     -5.64086274	     15.39579821	      0.26870737	      3.08722003	    -10.26404448	     -7.49999987	     -3.58998972	     -0.37195493	      0.65626967	     43.23268177	      5.73606027	     11.43697912	     55.85688276	     90.16707049	     45.05772395	      3.86311236	     16.79198164	     60.23497096	     71.92782291
      5.05000000	    -13.49655156	      0.71020672	      0.45404349	      0.05470407	      1.11285274	      0.06526467	     25.84838390	     -2.21174069	     -2.01616100	     10.55668182	      0.18424886	      8.45153850	     -2.75098158	     -7.49999987	     28.62395790	     -0.34259141	     -5.67627731	     15.05688449	      0.26279221	      3.10958223	    -10.09264146	     -7.49999987	     -4.25887440	     -0.04888991	      1.26559788	     41.72460988	      5.55127285	      9.69157285	     58.26242512	     88.16393219	     44.16384169	      4.01227011	     17.90714734	     62.82457176	     72.19128900
      5.06666670	    -13.35844048	      0.60485870	      0.55310773	      0.05600682	      1.10834572	      0.06527450	     25.58903658	     -2.15756375	     -1.99892044	     10.77304974	      0.18802519	      8.51145967	     -2.85744516	     -7.49999987	     28.36065275	     -0.41921125	     -5.69174678	     14.92799596	      0.26054268	      3.27319471	     -9.97911406	     -7.49999987	     -4.58835871	      0.18130753	      2.20335617	     40.54452158	      5.14194155	      7.76103377	     60.38620681	     85.28518088	     43.92920656	      4.37379459	     19.45273467	     64.00912717	     72.39091961
      5.08333330	    -13.48065674	      0.56997218	      0.69041899	      0.05726982	      1.10545915	      0.06530396	     25.80335487	     -2.24233855	     -2.14425325	     11.01924280	      0.19232207	      8.73013488	     -3.07721104	     -7.49999987	     28.43576507	     -0.39791225	     -5.88899123	     15.20006879	      0.26529125	      3.70534947	     -9.92847773	     -7.49999987	     -4.46429206	      0.40666300	      2.56323576	     40.00662785	      4.89503987	      7.54219655	     60.71235626	     84.11424704	     43.16677043	      4.42348069	     19.75501245	     64.59040684	     71.89993026
      5.10000000	    -13.07540657	      0.48803481	      0.58592034	      0.05867329	      1.10748024	      0.06393745	     25.33549306	     -2.08917877	     -1.87591476	     11.31777728	      0.19753248	      8.68914372	     -3.43670923	     -7.49999987	     27.78050852	     -0.44541403	     -5.67237893	     15.14993192	      0.26441619	      3.69338003	    -10.23909461	     -7.49999987	     -5.23896886	      0.45545063	      3.55326125	     38.57924457	      4.94339207	      5.43860870	     62.63861589	     79.00755395	     43.08434855	      4.32851710	     21.51887555	     65.02558760	     71.98029725
      5.11666670	    -13.02737933	      0.35815099	      0.72834191	      0.06008262	      1.10857456	      0.06371939	     25.36925116	     -2.05643489	     -1.86647767	     11.71950206	      0.20454390	      8.92570518	     -3.54261762	     -7.49999987	     27.55486106	     -0.48069810	     -5.73988715	     15.25443740	      0.26624016	      4.11535749	    -10.23542150	     -7.49999987	     -5.19299322	      0.59459731	      3.49050498	     37.54518269	      4.81208137	      5.33153243	     62.40065933	     78.58224404	     41.90637276	      4.05790466	     21.68964967	     64.98007540	     71.77946000
